<?xml version="1.0" encoding="UTF-8" standalone="no"?>
<!-- Generator: Adobe Illustrator 16.0.0, SVG Export Plug-In . SVG Version: 6.00 Build 0)  -->

<svg
   xmlns:dc="http://purl.org/dc/elements/1.1/"
   xmlns:cc="http://creativecommons.org/ns#"
   xmlns:rdf="http://www.w3.org/1999/02/22-rdf-syntax-ns#"
   xmlns:svg="http://www.w3.org/2000/svg"
   xmlns="http://www.w3.org/2000/svg"
   xmlns:sodipodi="http://sodipodi.sourceforge.net/DTD/sodipodi-0.dtd"
   xmlns:inkscape="http://www.inkscape.org/namespaces/inkscape"
   version="1.1"
   id="Layer_1"
   x="0px"
   y="0px"
   width="700"
   height="700"
   viewBox="0 0 700 700"
   enable-background="new 0 0 1080 360"
   xml:space="preserve"
   sodipodi:docname="meo-logo.svg"
   inkscape:version="0.92.4 (5da689c313, 2019-01-14)"
   inkscape:export-filename="C:\Users\suitedoalex\sites\meo-logo-0.png"
   inkscape:export-xdpi="561.73999"
   inkscape:export-ydpi="561.73999"><metadata
   id="metadata23"><rdf:RDF><cc:Work
       rdf:about=""><dc:format>image/svg+xml</dc:format><dc:type
         rdf:resource="http://purl.org/dc/dcmitype/StillImage" /><dc:title></dc:title></cc:Work></rdf:RDF></metadata><defs
   id="defs21" /><sodipodi:namedview
   pagecolor="#ffffff"
   bordercolor="#666666"
   borderopacity="1"
   objecttolerance="10"
   gridtolerance="10"
   guidetolerance="10"
   inkscape:pageopacity="0"
   inkscape:pageshadow="2"
   inkscape:window-width="1600"
   inkscape:window-height="837"
   id="namedview19"
   showgrid="false"
   inkscape:zoom="0.30925926"
   inkscape:cx="540"
   inkscape:cy="180"
   inkscape:window-x="-8"
   inkscape:window-y="-8"
   inkscape:window-maximized="1"
   inkscape:current-layer="Layer_1" />
<g
   id="g16"
   transform="matrix(0.42022809,0,0,0.42022809,123.07664,274.35894)"
   inkscape:export-filename="C:\Users\suitedoalex\sites\meo-logo-4.png"
   inkscape:export-xdpi="84.808319"
   inkscape:export-ydpi="84.808319">
	<path
   d="m 177.511,14.439 c -17.215,0 -31.137,5.568 -31.137,12.404 v 309.604 c 0,6.84 13.922,12.406 31.137,12.406 17.215,0 31.138,-5.566 31.138,-12.406 V 26.844 c 0,-6.836 -13.923,-12.405 -31.138,-12.405 z"
   id="path2"
   inkscape:connector-curvature="0" />
	<path
   d="M 75.237,11.146 C 58.277,8.869 43.845,12.415 42.834,19.249 L 1.317,326.322 c -1.012,6.836 12.152,14.178 29.113,16.455 16.961,2.277 31.39,-1.266 32.403,-8.1 L 104.35,27.602 C 105.363,20.769 92.199,13.424 75.237,11.146 Z"
   id="path4"
   inkscape:connector-curvature="0" />
	<path
   d="m 279.785,11.146 c -16.961,2.278 -29.871,9.622 -29.113,16.456 l 41.517,306.822 c 1.013,6.834 15.442,10.379 32.405,8.102 16.959,-2.279 29.872,-9.621 29.111,-16.455 L 312.189,19.25 c -0.76,-6.835 -15.442,-10.38 -32.404,-8.104 z"
   id="path6"
   inkscape:connector-curvature="0" />
	<path
   d="m 413.197,179.496 c 0,17.213 5.568,31.135 12.403,31.135 h 236.446 c 6.836,0 12.405,-13.922 12.405,-31.135 0,-17.218 -5.569,-31.139 -12.658,-31.139 H 425.348 c -6.582,0 -12.151,13.921 -12.151,31.139 z"
   id="path8"
   inkscape:connector-curvature="0" />
	<path
   d="m 409.905,286.072 c -2.278,16.959 1.268,31.391 8.101,32.402 l 234.169,31.645 c 6.834,1.012 14.174,-12.15 16.454,-29.111 2.278,-16.963 -1.269,-31.393 -8.103,-32.404 L 426.36,256.961 c -6.835,-0.762 -14.175,12.15 -16.455,29.111 z"
   id="path10"
   inkscape:connector-curvature="0" />
	<path
   d="m 409.905,72.917 c 2.279,16.961 9.62,29.873 16.455,29.113 L 660.527,70.384 c 6.834,-1.01 10.381,-15.441 8.103,-32.402 C 666.35,21.02 659.01,8.111 652.176,8.869 l -234.17,31.644 c -6.833,0.76 -10.632,15.444 -8.101,32.404 z"
   id="path12"
   inkscape:connector-curvature="0" />
	<path
   d="M 900.265,1.528 C 801.535,1.528 721.79,81.523 721.79,180 c 0,98.73 79.997,178.472 178.475,178.472 98.476,0 178.473,-79.996 178.473,-178.472 C 1078.989,81.523 998.992,1.528 900.265,1.528 Z m 0,292.648 c -63.036,0 -114.173,-51.141 -114.173,-114.175 0,-63.035 51.137,-114.171 114.173,-114.171 63.033,0 114.173,51.136 114.173,114.171 0,63.034 -51.14,114.175 -114.173,114.175 z"
   id="path14"
   inkscape:connector-curvature="0" />
</g>
</svg>