<?xml version="1.0" standalone="no"?>
<!DOCTYPE svg PUBLIC "-//W3C//DTD SVG 20010904//EN"
 "http://www.w3.org/TR/2001/REC-SVG-20010904/DTD/svg10.dtd">
<svg version="1.0" xmlns="http://www.w3.org/2000/svg"
 width="1181.000000pt" height="640.000000pt" viewBox="0 0 1181.000000 640.000000"
 preserveAspectRatio="xMidYMid meet">

<g transform="translate(0.000000,640.000000) scale(0.100000,-0.100000)"
fill="#000000" stroke="none">
<path d="M6124 6173 c3 -82 11 -332 16 -558 6 -225 13 -452 16 -502 l6 -93 89
0 89 0 0 31 c0 43 29 1051 33 1172 l4 97 -130 0 -130 0 7 -147z"/>
<path d="M5705 6275 c-90 -16 -120 -25 -118 -36 3 -27 255 -1254 258 -1257 5
-6 159 20 168 28 9 8 -171 1270 -182 1281 -3 3 -60 -4 -126 -16z"/>
<path d="M6660 6287 c0 -7 -40 -289 -90 -626 -49 -337 -90 -622 -90 -635 0
-20 7 -23 82 -34 45 -6 85 -9 89 -4 7 8 259 1227 259 1252 0 12 -25 20 -107
34 -60 9 -116 20 -125 22 -11 3 -18 0 -18 -9z"/>
<path d="M5183 6136 c-62 -23 -113 -46 -113 -52 0 -10 467 -1195 474 -1201 4
-4 153 51 162 59 6 7 -393 1218 -405 1229 -3 3 -57 -13 -118 -35z"/>
<path d="M6989 5561 l-207 -619 86 -31 c47 -17 86 -30 87 -28 5 6 468 1182
472 1196 3 13 -20 24 -109 56 -61 22 -115 41 -118 43 -3 1 -98 -277 -211 -617z"/>
<path d="M4691 5906 c-57 -33 -103 -66 -102 -71 1 -9 604 -994 656 -1072 l21
-32 75 45 c40 24 73 50 71 57 -5 19 -594 1111 -606 1123 -8 9 -38 -5 -115 -50z"/>
<path d="M7390 5404 c-168 -311 -306 -569 -308 -574 -3 -9 128 -90 146 -90 10
0 682 1083 682 1098 0 6 -163 105 -210 128 -3 1 -143 -252 -310 -562z"/>
<path d="M4245 5594 c-49 -42 -90 -79 -90 -83 0 -9 856 -971 864 -971 3 1 35
27 70 59 l63 57 -398 504 c-220 277 -403 505 -409 507 -5 1 -50 -31 -100 -73z"/>
<path d="M7750 5169 c-217 -275 -396 -505 -397 -512 -1 -7 28 -36 64 -66 63
-52 66 -53 83 -35 10 11 205 230 434 487 l415 469 -94 79 c-52 43 -98 79 -102
79 -4 -1 -186 -226 -403 -501z"/>
<path d="M3868 5217 c-42 -50 -77 -96 -77 -102 -1 -5 227 -191 505 -411 l507
-401 58 69 58 69 -462 411 c-254 226 -473 422 -488 434 l-25 24 -76 -93z"/>
<path d="M8079 4888 c-261 -231 -480 -426 -487 -433 -12 -10 -4 -25 45 -83 49
-60 60 -68 73 -57 8 7 236 187 505 400 270 213 491 391 493 396 2 4 -32 51
-76 103 l-80 95 -473 -421z"/>
<path d="M3569 4798 c-23 -40 -51 -88 -62 -107 -17 -27 -18 -35 -6 -42 63 -40
1131 -610 1135 -606 15 14 84 141 82 148 -3 9 -1089 679 -1100 679 -4 0 -26
-33 -49 -72z"/>
<path d="M8365 4559 c-275 -171 -521 -323 -547 -339 l-47 -29 34 -58 c19 -32
40 -67 48 -77 13 -18 40 -5 548 269 294 158 551 298 571 310 l37 21 -62 107
c-34 59 -66 107 -72 106 -5 0 -235 -140 -510 -310z"/>
<path d="M10525 4629 c-112 -14 -242 -55 -355 -111 -91 -46 -117 -65 -201
-148 -155 -154 -216 -299 -226 -531 -14 -317 99 -526 373 -693 115 -70 236
-116 624 -236 156 -49 215 -76 272 -128 55 -50 78 -102 78 -181 0 -86 -16
-134 -63 -187 -79 -90 -184 -120 -385 -111 -235 11 -535 104 -759 236 l-53 31
0 -309 0 -309 103 -40 c197 -77 374 -120 586 -141 406 -42 758 60 966 280 75
79 96 109 140 197 59 121 79 216 79 382 1 169 -12 231 -75 359 -70 141 -201
262 -389 356 -108 54 -217 94 -459 170 -118 36 -236 77 -262 91 -129 65 -185
166 -159 289 20 99 89 162 210 195 70 19 250 14 374 -10 190 -37 445 -132 573
-213 24 -15 45 -27 48 -27 3 0 5 135 5 300 l0 300 -62 31 c-135 68 -388 136
-593 159 -106 12 -291 11 -390 -1z"/>
<path d="M80 3200 l0 -1400 293 2 292 3 -2 924 c-2 785 0 923 11 910 8 -8 92
-122 188 -255 95 -132 398 -543 672 -912 l499 -672 289 0 288 0 0 1400 0 1400
-296 0 -296 0 4 -925 c1 -509 1 -925 -2 -924 -3 0 -50 63 -105 141 -119 167
-429 589 -910 1237 l-350 471 -287 0 -288 0 0 -1400z"/>
<path d="M3321 4273 c-31 -88 -39 -119 -29 -122 7 -3 285 -95 618 -206 l605
-201 31 83 c17 46 28 86 24 88 -13 8 -1194 475 -1201 475 -3 0 -25 -53 -48
-117z"/>
<path d="M8520 4152 c-327 -130 -596 -237 -597 -237 -2 -1 11 -40 28 -87 l31
-86 617 206 c339 112 617 205 618 206 6 5 -84 236 -92 235 -5 0 -278 -107
-605 -237z"/>
<path d="M3186 3778 c-9 -51 -19 -107 -22 -124 -6 -31 -5 -32 38 -38 172 -24
1216 -177 1229 -180 14 -3 20 12 33 82 8 48 12 89 8 93 -7 6 -1237 259 -1258
259 -6 0 -19 -41 -28 -92z"/>
<path d="M8643 3742 c-336 -70 -614 -130 -617 -133 -4 -3 0 -44 7 -90 11 -73
16 -84 33 -82 32 4 1269 185 1270 187 1 0 -8 56 -19 124 -19 110 -23 122 -42
121 -11 0 -295 -58 -632 -127z"/>
<path d="M3135 3332 c-3 -3 -5 -61 -5 -130 l0 -125 163 7 c89 3 342 11 562 16
220 6 442 13 493 16 l92 6 0 89 0 89 -31 0 c-43 0 -1051 29 -1171 33 -54 2
-100 2 -103 -1z"/>
<path d="M8925 3324 c-220 -6 -505 -15 -632 -19 l-233 -7 0 -88 0 -88 83 -6
c45 -3 278 -10 517 -16 239 -6 495 -13 568 -17 l132 -6 0 132 c0 119 -2 131
-17 130 -10 -1 -198 -8 -418 -15z"/>
<path d="M3788 2886 c-339 -50 -619 -94 -622 -97 -3 -3 4 -60 16 -127 17 -101
24 -122 37 -118 9 3 295 62 636 132 341 69 622 128 624 130 2 1 -1 25 -7 51
-6 26 -14 65 -17 86 -5 30 -10 37 -28 36 -12 -1 -300 -42 -639 -93z"/>
<path d="M8046 2968 c-8 -27 -28 -159 -25 -162 4 -3 1228 -255 1259 -259 11
-2 20 26 36 118 12 66 19 123 15 126 -5 5 -1251 190 -1274 189 -4 0 -9 -6 -11
-12z"/>
<path d="M3890 2467 c-333 -111 -607 -203 -609 -204 -2 -1 16 -54 39 -118 38
-104 45 -116 64 -112 18 4 1189 466 1192 470 5 9 -61 167 -70 166 -6 0 -283
-91 -616 -202z"/>
<path d="M7975 2658 c-2 -7 -16 -44 -30 -82 -14 -38 -24 -70 -22 -72 6 -6
1192 -474 1202 -474 12 0 95 222 86 231 -6 7 -1211 409 -1224 409 -4 0 -10 -6
-12 -12z"/>
<path d="M4065 2074 c-308 -167 -564 -305 -569 -307 -5 -2 19 -53 54 -115 35
-61 66 -110 69 -108 22 11 1070 658 1085 669 19 14 18 17 -25 90 -24 42 -46
76 -49 76 -3 -1 -257 -138 -565 -305z"/>
<path d="M7817 2302 c-25 -42 -44 -78 -43 -78 6 -7 1110 -683 1111 -682 1 2
29 51 63 111 61 107 61 107 39 121 -22 14 -1035 560 -1093 589 l-32 16 -45
-77z"/>
<path d="M4310 1724 c-267 -212 -495 -393 -508 -402 l-23 -17 82 -98 c71 -85
83 -96 97 -85 21 16 909 803 939 832 l22 21 -55 65 c-30 36 -58 66 -62 67 -4
1 -225 -171 -492 -383z"/>
<path d="M7635 2043 l-56 -66 33 -32 c18 -18 237 -214 487 -435 l454 -403 21
25 c12 14 48 58 80 98 l59 71 -24 23 c-27 26 -987 786 -993 786 -2 0 -29 -30
-61 -67z"/>
<path d="M4604 1418 c-225 -253 -419 -473 -431 -488 l-23 -28 98 -81 c76 -64
99 -79 107 -68 5 7 186 235 400 506 215 270 391 496 393 500 1 5 -28 33 -66
64 l-68 55 -410 -460z"/>
<path d="M7416 1823 c-37 -31 -65 -62 -62 -69 2 -6 183 -237 401 -512 l397
-502 75 63 c41 34 86 71 99 82 l24 20 -396 445 c-218 245 -413 464 -434 488
l-38 42 -66 -57z"/>
<path d="M5112 1438 c-82 -134 -236 -382 -341 -553 l-191 -309 108 -63 c59
-34 109 -63 112 -63 4 0 609 1116 618 1139 2 6 -138 91 -151 91 -3 0 -73 -109
-155 -242z"/>
<path d="M7160 1644 c-30 -18 -62 -37 -69 -42 -12 -7 45 -120 287 -568 166
-307 306 -565 311 -573 7 -10 31 0 112 47 64 37 104 66 103 75 -2 24 -667
1097 -679 1096 -5 -1 -35 -16 -65 -35z"/>
<path d="M5307 941 c-130 -329 -237 -602 -237 -608 0 -10 228 -99 235 -91 7 7
406 1230 403 1233 -2 2 -40 17 -84 33 l-80 30 -237 -597z"/>
<path d="M6865 1506 l-81 -30 203 -614 c111 -338 204 -616 207 -619 2 -3 57
14 121 38 90 33 115 46 112 58 -10 35 -469 1186 -475 1192 -4 3 -43 -8 -87
-25z"/>
<path d="M5716 813 c-71 -346 -131 -633 -133 -639 -4 -12 238 -58 248 -46 8 9
193 1271 187 1277 -4 4 -154 35 -168 35 -3 0 -63 -282 -134 -627z"/>
<path d="M6549 1423 c-62 -12 -76 -18 -73 -31 2 -10 45 -298 95 -642 50 -344
92 -626 94 -628 4 -4 239 38 244 44 3 2 -54 289 -125 637 -98 472 -134 632
-145 633 -8 1 -48 -5 -90 -13z"/>
<path d="M6156 1308 c-3 -51 -10 -280 -16 -508 -5 -228 -13 -481 -16 -562 l-7
-148 126 0 c69 0 128 3 130 8 2 4 -4 270 -14 592 -10 322 -18 613 -18 648 l-1
62 -89 0 -89 0 -6 -92z"/>
</g>
</svg>
