<?xml version="1.0" standalone="no"?>
<!DOCTYPE svg PUBLIC "-//W3C//DTD SVG 20010904//EN"
 "http://www.w3.org/TR/2001/REC-SVG-20010904/DTD/svg10.dtd">
<svg version="1.0" xmlns="http://www.w3.org/2000/svg"
 width="200.000000pt" height="87.000000pt" viewBox="0 0 200.000000 87.000000"
 preserveAspectRatio="xMidYMid meet">

<g transform="translate(0.000000,87.000000) scale(0.100000,-0.100000)"
fill="#000000" stroke="none">
<path d="M244 781 c-17 -4 -36 -11 -42 -15 -7 -4 -12 -2 -12 3 0 6 -18 11 -40
11 l-40 0 0 -200 0 -200 44 0 44 0 4 136 c3 135 3 136 31 160 40 34 90 32 128
-5 l29 -29 0 -131 0 -131 45 0 45 0 0 128 c-1 166 -20 221 -90 257 -34 17
-108 26 -146 16z"/>
<path d="M625 763 c-109 -57 -145 -174 -87 -284 22 -43 38 -59 81 -81 67 -35
121 -36 187 -3 152 76 153 288 2 366 -46 24 -140 25 -183 2z m168 -91 c53 -53
47 -157 -11 -202 -33 -27 -101 -27 -134 0 -74 57 -58 194 27 231 34 15 87 2
118 -29z"/>
<path d="M1595 767 c-73 -34 -116 -106 -116 -192 0 -192 237 -278 359 -130 78
95 57 235 -46 306 -42 29 -149 37 -197 16z m153 -83 c71 -47 62 -188 -14 -222
-116 -54 -219 85 -146 197 33 49 105 61 160 25z"/>
<path d="M904 753 c19 -60 156 -368 165 -371 5 -2 35 46 66 107 30 61 59 111
63 111 4 0 32 -49 62 -110 30 -60 59 -110 65 -110 5 0 27 42 49 93 21 50 58
138 82 195 l43 102 -48 0 -48 0 -39 -94 c-22 -52 -43 -95 -49 -97 -5 -1 -32
41 -60 94 -27 53 -53 97 -57 97 -4 0 -30 -45 -59 -100 -29 -55 -55 -100 -59
-100 -3 0 -24 44 -46 98 l-40 97 -48 3 c-42 3 -47 1 -42 -15z"/>
<path d="M1390 210 c0 -5 5 -10 11 -10 5 0 7 5 4 10 -3 6 -8 10 -11 10 -2 0
-4 -4 -4 -10z"/>
<path d="M1671 203 c0 -13 -6 -23 -12 -23 -8 0 -8 -4 -1 -13 6 -6 12 -28 14
-47 2 -25 8 -36 22 -38 18 -4 19 -3 3 13 -25 24 -22 64 6 75 l22 9 -22 0 c-14
1 -23 9 -26 24 l-4 22 -2 -22z"/>
<path d="M1217 162 c-21 -23 -22 -46 -1 -66 18 -18 60 -21 69 -6 4 7 -2 9 -17
5 -42 -11 -68 57 -27 70 24 8 42 -3 35 -21 -3 -8 1 -14 9 -14 19 0 19 15 -1
34 -21 21 -47 20 -67 -2z"/>
<path d="M1392 123 c-1 -38 -7 -63 -14 -66 -7 -2 -10 -8 -5 -12 17 -19 28 15
24 76 l-3 64 -2 -62z"/>
<path d="M1444 135 l1 -50 43 -1 42 -2 0 49 c0 27 -4 49 -10 49 -5 0 -10 -18
-10 -40 0 -71 -55 -64 -63 8 -3 25 -4 21 -3 -13z"/>
<path d="M1563 164 c-7 -18 20 -44 44 -44 7 0 13 -7 13 -16 0 -12 -7 -15 -30
-12 -16 3 -30 1 -30 -4 0 -5 17 -8 37 -6 53 4 57 32 8 52 -40 17 -39 41 1 33
13 -2 21 0 18 4 -9 15 -54 10 -61 -7z"/>
<path d="M1747 162 c-22 -24 -21 -45 1 -65 24 -22 55 -21 75 1 22 24 21 45 -1
65 -24 22 -55 21 -75 -1z m61 -4 c17 -17 15 -43 -4 -59 -31 -26 -70 25 -44 56
15 18 32 19 48 3z"/>
<path d="M1860 90 c0 -5 5 -10 10 -10 6 0 10 5 10 10 0 6 -4 10 -10 10 -5 0
-10 -4 -10 -10z"/>
</g>
</svg>
